<?xml version="1.0" encoding="utf-8"?>
<!-- Generator: Adobe Illustrator 27.5.0, SVG Export Plug-In . SVG Version: 6.00 Build 0)  -->
<svg version="1.1" id="Layer_1" xmlns="http://www.w3.org/2000/svg" xmlns:xlink="http://www.w3.org/1999/xlink" x="0px" y="0px"
	 viewBox="0 0 595.28 841.89" style="enable-background:new 0 0 595.28 841.89;" xml:space="preserve">
<style type="text/css">
	.st0{fill:#FFFFFF;}
</style>
<g>
	<path class="st0" d="M422.66,379.9h-20.84c0,12.33-2.45,23.97-6.88,34.6c-6.64,15.93-17.79,29.55-31.8,39.14
		c-14.02,9.59-30.78,15.16-49.01,15.17c-12.17,0-23.65-2.49-34.13-6.98c-15.71-6.73-29.14-18.03-38.6-32.24
		c-9.46-14.22-14.96-31.21-14.96-49.69c0-12.33,2.45-23.98,6.88-34.6c6.64-15.93,17.79-29.55,31.8-39.14
		c14.02-9.59,30.78-15.16,49.01-15.17c12.16,0,23.65,2.49,34.13,6.98c15.71,6.73,29.14,18.03,38.6,32.24
		c9.46,14.22,14.96,31.21,14.96,49.69H422.66h20.84c0-18.05-3.62-35.36-10.17-51.06c-9.84-23.57-26.21-43.55-46.85-57.69
		c-20.62-14.14-45.62-22.42-72.34-22.41c-17.8,0-34.87,3.67-50.36,10.32c-23.24,9.97-42.95,26.58-56.9,47.5
		c-13.95,20.91-22.11,46.26-22.11,73.35c0,18.05,3.62,35.36,10.17,51.06c9.84,23.57,26.21,43.55,46.85,57.69
		c20.62,14.14,45.62,22.42,72.35,22.41c17.8,0,34.87-3.67,50.36-10.32c23.24-9.97,42.95-26.58,56.9-47.5
		c13.95-20.91,22.11-46.26,22.11-73.35H422.66z"/>
	<path class="st0" d="M418.14,606.14v-23.77H203.51c-13.29,0-25.83-2.72-37.28-7.62c-17.16-7.35-31.84-19.7-42.17-35.22
		c-10.33-15.53-16.34-34.09-16.35-54.29V274.56c0-13.48,2.68-26.19,7.52-37.8c7.25-17.4,19.43-32.28,34.73-42.75
		c15.32-10.48,33.62-16.56,53.55-16.57h214.63c13.29,0,25.83,2.72,37.28,7.62c17.16,7.35,31.84,19.7,42.17,35.22
		c10.33,15.53,16.34,34.09,16.35,54.29v210.68c0,13.48-2.68,26.19-7.52,37.8c-7.25,17.4-19.43,32.28-34.73,42.75
		c-15.32,10.48-33.62,16.56-53.55,16.57V606.14v23.77c19.64,0,38.46-4.05,55.55-11.38c25.64-11,47.38-29.31,62.76-52.39
		c15.38-23.06,24.39-51.02,24.38-80.9V274.56c0-19.91-3.99-39-11.22-56.32c-10.85-25.99-28.91-48.03-51.67-63.63
		c-22.74-15.59-50.32-24.73-79.79-24.72H203.51c-19.64,0-38.46,4.05-55.55,11.38c-25.64,11-47.38,29.31-62.75,52.39
		c-15.38,23.06-24.39,51.02-24.38,80.9v210.68c0,19.91,3.99,39,11.22,56.32c10.85,25.99,28.91,48.03,51.67,63.63
		c22.74,15.59,50.32,24.73,79.79,24.72h214.63V606.14z"/>
	<ellipse class="st0" cx="445.23" cy="245.22" rx="31.26" ry="31.69"/>
</g>
</svg>
