<svg width="25" height="23" viewBox="0 0 25 23" fill="none" xmlns="http://www.w3.org/2000/svg">
<path d="M24.5 11C24.5 16.7408 19.1894 21.5 12.5 21.5C5.81061 21.5 0.5 16.7408 0.5 11C0.5 5.25915 5.81061 0.5 12.5 0.5C19.1894 0.5 24.5 5.25915 24.5 11Z" fill="#6200E8" stroke="#241C32"/>
<path d="M13.8887 13.6543H11.3984C11.4049 13.0684 11.4505 12.5638 11.5352 12.1406C11.6263 11.7109 11.7793 11.3236 11.9941 10.9785C12.2155 10.6335 12.5085 10.2917 12.873 9.95312C13.179 9.67969 13.446 9.41927 13.6738 9.17188C13.9017 8.92448 14.0807 8.67057 14.2109 8.41016C14.3411 8.14323 14.4062 7.84701 14.4062 7.52148C14.4062 7.14388 14.3477 6.83138 14.2305 6.58398C14.1198 6.33008 13.9505 6.13802 13.7227 6.00781C13.5013 5.8776 13.2214 5.8125 12.8828 5.8125C12.6029 5.8125 12.3424 5.87435 12.1016 5.99805C11.8607 6.11523 11.6621 6.29753 11.5059 6.54492C11.3561 6.79232 11.278 7.11784 11.2715 7.52148H8.43945C8.45898 6.62956 8.66406 5.89388 9.05469 5.31445C9.45182 4.72852 9.98242 4.29557 10.6465 4.01562C11.3105 3.72917 12.056 3.58594 12.8828 3.58594C13.7943 3.58594 14.5755 3.73568 15.2266 4.03516C15.8776 4.32812 16.3757 4.76107 16.7207 5.33398C17.0658 5.90039 17.2383 6.59049 17.2383 7.4043C17.2383 7.9707 17.1276 8.47526 16.9062 8.91797C16.6849 9.35417 16.3952 9.76107 16.0371 10.1387C15.679 10.5163 15.2852 10.9069 14.8555 11.3105C14.4844 11.6426 14.2305 11.9909 14.0938 12.3555C13.9635 12.7201 13.8952 13.153 13.8887 13.6543ZM11.1055 16.6719C11.1055 16.2552 11.2487 15.9102 11.5352 15.6367C11.8216 15.3568 12.2057 15.2168 12.6875 15.2168C13.1628 15.2168 13.5436 15.3568 13.8301 15.6367C14.123 15.9102 14.2695 16.2552 14.2695 16.6719C14.2695 17.0755 14.123 17.4173 13.8301 17.6973C13.5436 17.9772 13.1628 18.1172 12.6875 18.1172C12.2057 18.1172 11.8216 17.9772 11.5352 17.6973C11.2487 17.4173 11.1055 17.0755 11.1055 16.6719Z" fill="white"/>
</svg>
