<?xml version="1.0" encoding="utf-8"?>
<!-- Generator: Adobe Illustrator 27.5.0, SVG Export Plug-In . SVG Version: 6.00 Build 0)  -->
<svg version="1.1" id="Layer_1" xmlns="http://www.w3.org/2000/svg" xmlns:xlink="http://www.w3.org/1999/xlink" x="0px" y="0px"
	 viewBox="0 0 595.28 841.89" style="enable-background:new 0 0 595.28 841.89;" xml:space="preserve">
<style type="text/css">
	.st0{fill:#FFFFFF;}
</style>
<path class="st0" d="M247.79,561.52c-6.6,0-13.21,0-19.81,0c-2.38-0.37-4.79-0.22-7.17-0.24c-11.06-0.09-21.89-1.69-32.64-3.82
	c-14.53-2.88-28.62-6.99-42.24-12.46c-9.98-4.01-19.65-8.56-28.94-13.77c-0.31-0.18-0.62-0.36-0.92-0.55
	c-0.55-0.36-1.27-0.71-1.04-1.44c0.26-0.83,1.16-0.75,1.86-0.69c1.51,0.12,3.02,0.24,4.54,0.34c6.58,0.44,13.16,0.65,19.76,0.27
	c4.76-0.28,9.5-0.6,14.22-1.19c13.31-1.66,26.16-4.83,38.59-9.45c12.38-4.6,23.93-10.55,34.67-17.81c0.41-0.28,0.88-0.51,1.2-1.05
	c-2.11-0.5-4.25-0.43-6.34-0.69c-15.5-1.95-29.28-7.4-41.26-16.58c-11.28-8.64-19.35-19.31-24.3-31.94
	c-0.75-1.91-0.14-2.64,2.09-2.35c3.01,0.39,6,0.84,9.05,0.85c2.64,0.48,5.27,0.55,7.91,0c4.87-0.01,9.6-0.97,13.99-1.66
	c-4.05-0.83-8.31-2.13-12.47-3.7c-7.41-2.8-14.17-6.61-20.31-11.29c-7.83-5.96-14.2-13.04-19.09-21.22
	c-4.17-6.97-7.03-14.36-8.55-22.16c-0.78-3.99-1.33-8.01-1.14-12.08c0.09-1.98,0.88-2.36,2.77-1.45c7.85,3.78,16.19,6.22,24.98,7.4
	c2.01,0.27,4.03,0.61,6.3,0.59c-1.93-1.45-3.8-2.71-5.55-4.1c-6.48-5.15-12.03-11-16.43-17.74c-6.11-9.36-9.89-19.45-11.06-30.28
	c-1.64-15.18,1.57-29.5,9.63-42.9c0.96-1.59,1.81-1.72,3.07-0.34c4.28,4.69,8.79,9.21,13.45,13.58c3.5,3.28,7.18,6.4,10.96,9.42
	c5.44,4.33,11.04,8.48,16.9,12.33c7.48,4.92,15.22,9.45,23.29,13.54c8.39,4.25,17.04,7.98,25.95,11.22
	c15.43,5.62,31.37,9.57,47.76,12.02c7.28,1.09,14.62,1.78,21.99,2.23c1.11,0.07,1.38-0.34,1.24-1.27c-0.34-2.36-0.93-4.68-1.1-7.07
	c-0.48-6.72-0.52-13.42,0.8-20.08c2.47-12.51,8.03-23.77,16.92-33.55c12.47-13.72,28.32-22.4,47.61-25.73
	c3.03-0.52,6.13-0.59,9.19-0.61c8.41-0.06,16.86-0.43,25.13,1.49c8.29,1.92,16.08,4.88,23.31,9.05c5.11,2.94,9.88,6.27,14.04,10.28
	c1,0.97,2.03,1.27,3.5,0.98c9.81-1.92,19.34-4.64,28.58-8.2c6.08-2.34,12-5,17.72-8.01c0.64-0.34,1.35-0.68,2.04-0.17
	c0.71,0.53,0.43,1.22,0.18,1.85c-3.92,9.79-9.59,18.6-17.6,26.13c-3.95,3.71-8.13,7.14-12.79,10.08c-0.63,0.4-1.25,0.81-1.99,1.01
	c6.73-0.97,13.41-2.15,19.99-3.77c6.78-1.67,13.42-3.74,19.89-6.23c0.84-0.32,1.9-1.08,2.6-0.36c0.69,0.72-0.03,1.76-0.53,2.48
	c-1.57,2.25-3.39,4.35-5.16,6.48c-5.5,6.59-11.86,12.46-18.42,18.16c-3.94,3.42-8.14,6.58-12.58,9.46
	c-1.37,0.89-2.02,1.88-1.56,3.38c-0.7,4.39-0.73,8.77,0,13.15c-0.35,3.36-0.49,6.74-0.78,10.11c-0.57,6.76-1.64,13.44-2.94,20.1
	c-2.24,11.48-5.68,22.68-9.98,33.65c-4.13,10.52-9.18,20.67-15.02,30.51c-5.54,9.33-11.84,18.21-18.81,26.7
	c-7.95,9.69-16.89,18.59-26.58,26.84c-10.23,8.71-21.34,16.42-33.28,23.12c-15.65,8.78-32.24,15.66-49.79,20.59
	c-12.03,3.38-24.3,5.79-36.79,7.32c-7.15,0.87-14.32,0.99-21.5,1.14C248.59,561.39,248.16,561.26,247.79,561.52z"/>
</svg>
