<svg width="32" height="33" viewBox="0 0 32 33" fill="none" xmlns="http://www.w3.org/2000/svg">
<g clip-path="url(#clip0_1_5204)">
<path d="M16 32.0312C24.8366 32.0312 32 24.8678 32 16.0312C32 7.19469 24.8366 0.03125 16 0.03125C7.16344 0.03125 0 7.19469 0 16.0312C0 24.8678 7.16344 32.0312 16 32.0312Z" fill="#FF007A"/>
<path d="M12.2456 5.1144C11.9606 5.0704 11.9486 5.0644 12.0826 5.0444C12.3396 5.0044 12.9476 5.0594 13.3666 5.1584C14.3436 5.3914 15.2326 5.9864 16.1826 7.0434L16.4346 7.3234L16.7946 7.2664C18.3146 7.0214 19.8616 7.2164 21.1546 7.8134C21.5106 7.9774 22.0716 8.3044 22.1416 8.3894C22.1646 8.4154 22.2056 8.5884 22.2326 8.7724C22.3286 9.4094 22.2806 9.8974 22.0866 10.2624C21.9806 10.4604 21.9746 10.5224 22.0456 10.6924C22.0793 10.7626 22.1321 10.822 22.1978 10.8637C22.2636 10.9054 22.3397 10.9278 22.4176 10.9284C22.7396 10.9284 23.0856 10.4084 23.2456 9.6854L23.3096 9.3984L23.4356 9.5414C24.1276 10.3254 24.6706 11.3944 24.7636 12.1544L24.7886 12.3534L24.6716 12.1734C24.4716 11.8634 24.2716 11.6514 24.0136 11.4804C23.5496 11.1734 23.0586 11.0694 21.7586 11.0004C20.5846 10.9384 19.9196 10.8384 19.2616 10.6234C18.1406 10.2584 17.5756 9.7714 16.2436 8.0244C15.6526 7.2484 15.2866 6.8194 14.9236 6.4744C14.0966 5.6884 13.2846 5.2764 12.2456 5.1144Z" fill="white"/>
<path d="M22.4774 7.43325C22.5074 6.91325 22.5774 6.57025 22.7194 6.25725C22.7754 6.13325 22.8284 6.03125 22.8364 6.03125C22.8275 6.10145 22.809 6.17009 22.7814 6.23525C22.6784 6.53925 22.6614 6.95525 22.7324 7.43825C22.8224 8.05225 22.8744 8.14025 23.5224 8.80325C23.8274 9.11425 24.1814 9.50625 24.3094 9.67525L24.5424 9.98125L24.3094 9.76225C24.0244 9.49525 23.3684 8.97225 23.2234 8.89825C23.1264 8.84825 23.1114 8.84925 23.0514 8.90825C22.9964 8.96425 22.9844 9.04625 22.9774 9.43725C22.9654 10.0452 22.8824 10.4373 22.6814 10.8273C22.5734 11.0373 22.5564 10.9932 22.6544 10.7543C22.7274 10.5763 22.7344 10.4983 22.7344 9.90925C22.7344 8.72525 22.5934 8.44125 21.7684 7.95325C21.5201 7.80921 21.2652 7.67706 21.0044 7.55725C20.8755 7.50556 20.7506 7.44474 20.6304 7.37525C20.6534 7.35225 21.4574 7.58625 21.7804 7.71125C22.2624 7.89625 22.3414 7.92025 22.4004 7.89725C22.4394 7.88225 22.4584 7.76825 22.4774 7.43325ZM12.8704 9.45825C12.2914 8.66125 11.9334 7.43825 12.0104 6.52425L12.0344 6.24125L12.1664 6.26525C12.4144 6.31025 12.8414 6.46925 13.0414 6.59125C13.5894 6.92425 13.8274 7.36325 14.0684 8.48925C14.1394 8.81925 14.2324 9.19225 14.2754 9.31925C14.3434 9.52225 14.6034 9.99725 14.8154 10.3063C14.9674 10.5283 14.8654 10.6333 14.5294 10.6033C14.0154 10.5563 13.3194 10.0762 12.8704 9.45825ZM21.7754 15.3932C19.0684 14.3032 18.1154 13.3573 18.1154 11.7613C18.1154 11.5262 18.1234 11.3342 18.1324 11.3342C18.1424 11.3342 18.2474 11.4113 18.3654 11.5062C18.9144 11.9462 19.5294 12.1343 21.2304 12.3823C22.2314 12.5293 22.7954 12.6472 23.3154 12.8192C24.9674 13.3672 25.9894 14.4792 26.2334 15.9932C26.3034 16.4332 26.2624 17.2583 26.1474 17.6933C26.0574 18.0373 25.7804 18.6562 25.7074 18.6803C25.6874 18.6862 25.6674 18.6093 25.6614 18.5023C25.6334 17.9343 25.3464 17.3802 24.8634 16.9653C24.3144 16.4943 23.5774 16.1182 21.7744 15.3932H21.7754ZM19.8754 15.8452C19.8434 15.6521 19.7996 15.4611 19.7444 15.2733L19.6744 15.0672L19.8034 15.2113C19.9804 15.4113 20.1214 15.6653 20.2394 16.0053C20.3304 16.2643 20.3404 16.3413 20.3394 16.7623C20.3394 17.1763 20.3284 17.2622 20.2444 17.4963C20.1276 17.8394 19.932 18.1503 19.6734 18.4043C19.1784 18.9083 18.5434 19.1862 17.6254 19.3022C17.4654 19.3223 17.0014 19.3563 16.5924 19.3773C15.5624 19.4313 14.8854 19.5413 14.2764 19.7553C14.2215 19.7799 14.1625 19.7941 14.1024 19.7973C14.0784 19.7723 14.4924 19.5253 14.8354 19.3603C15.3184 19.1273 15.7984 19.0003 16.8754 18.8213C17.4074 18.7323 17.9574 18.6253 18.0964 18.5823C19.4144 18.1783 20.0914 17.1362 19.8744 15.8452H19.8754Z" fill="white"/>
<path d="M20.466 18.3822C20.106 17.6092 20.024 16.8622 20.221 16.1662C20.242 16.0922 20.276 16.0312 20.296 16.0312C20.3637 16.0557 20.4274 16.0901 20.485 16.1332C20.651 16.2452 20.983 16.4332 21.868 16.9152C22.973 17.5182 23.603 17.9852 24.032 18.5172C24.407 18.9842 24.639 19.5163 24.751 20.1643C24.814 20.5313 24.777 21.4142 24.683 21.7842C24.386 22.9502 23.695 23.8663 22.711 24.4003C22.6181 24.454 22.5219 24.5017 22.423 24.5433C22.409 24.5433 22.461 24.4102 22.54 24.2462C22.87 23.5542 22.909 22.8802 22.658 22.1302C22.505 21.6712 22.192 21.1103 21.561 20.1643C20.827 19.0643 20.647 18.7702 20.466 18.3822ZM10.299 22.5533C11.304 21.7053 12.553 21.1033 13.692 20.9183C14.182 20.8383 15 20.8702 15.454 20.9862C16.182 21.1722 16.834 21.5902 17.173 22.0872C17.503 22.5732 17.646 22.9973 17.793 23.9392C17.853 24.3112 17.916 24.6842 17.935 24.7692C18.045 25.2572 18.262 25.6482 18.53 25.8442C18.955 26.1552 19.688 26.1742 20.408 25.8942C20.4832 25.8597 20.5625 25.8349 20.644 25.8203C20.67 25.8463 20.308 26.0892 20.052 26.2172C19.7499 26.3789 19.4116 26.4608 19.069 26.4552C18.409 26.4552 17.861 26.1203 17.404 25.4353C17.314 25.3003 17.112 24.8972 16.954 24.5382C16.472 23.4382 16.234 23.1022 15.674 22.7352C15.185 22.4152 14.556 22.3582 14.083 22.5902C13.461 22.8952 13.288 23.6902 13.733 24.1932C13.91 24.3932 14.24 24.5662 14.51 24.5992C14.6278 24.6149 14.7475 24.605 14.8612 24.5703C14.9748 24.5357 15.0797 24.477 15.1687 24.3983C15.2577 24.3196 15.3288 24.2228 15.3772 24.1142C15.4255 24.0057 15.45 23.8881 15.449 23.7692C15.449 23.4373 15.321 23.2492 15.001 23.1042C14.564 22.9072 14.094 23.1372 14.096 23.5482C14.097 23.7232 14.173 23.8332 14.349 23.9132C14.462 23.9632 14.464 23.9683 14.372 23.9493C13.971 23.8653 13.877 23.3822 14.2 23.0612C14.587 22.6752 15.388 22.8452 15.663 23.3712C15.779 23.5922 15.792 24.0333 15.691 24.2993C15.466 24.8943 14.808 25.2063 14.141 25.0363C13.687 24.9202 13.502 24.7952 12.955 24.2312C12.004 23.2512 11.635 23.0612 10.263 22.8472L10 22.8063L10.3 22.5533H10.299Z" fill="white"/>
<path fill-rule="evenodd" clip-rule="evenodd" d="M6 3.19525L6.096 3.31225C9.804 7.85225 11.72 10.2083 11.842 10.3763C12.042 10.6543 11.967 10.9032 11.623 11.0992C11.432 11.2083 11.038 11.3182 10.842 11.3182C10.619 11.3182 10.368 11.2113 10.185 11.0382C10.056 10.9152 9.535 10.1373 8.332 8.27025C7.76865 7.38785 7.19797 6.51015 6.62 5.63725C6.571 5.59125 6.572 5.59225 8.238 8.57325C9.284 10.4452 9.638 11.1063 9.638 11.1953C9.638 11.3753 9.588 11.4692 9.366 11.7172C8.996 12.1302 8.831 12.5942 8.711 13.5542C8.577 14.6312 8.201 15.3913 7.157 16.6923C6.547 17.4543 6.447 17.5942 6.292 17.9012C6.098 18.2872 6.045 18.5042 6.023 18.9922C6 19.5082 6.045 19.8422 6.203 20.3352C6.341 20.7672 6.485 21.0532 6.853 21.6232C7.171 22.1162 7.354 22.4823 7.354 22.6252C7.354 22.7393 7.376 22.7393 7.869 22.6283C9.048 22.3622 10.005 21.8932 10.544 21.3193C10.877 20.9643 10.955 20.7682 10.958 20.2812C10.959 19.9632 10.948 19.8962 10.862 19.7132C10.722 19.4152 10.467 19.1672 9.905 18.7832C9.168 18.2793 8.854 17.8733 8.767 17.3163C8.695 16.8593 8.778 16.5363 9.186 15.6823C9.607 14.7983 9.712 14.4222 9.783 13.5312C9.828 12.9552 9.891 12.7283 10.057 12.5463C10.229 12.3563 10.385 12.2912 10.812 12.2332C11.508 12.1382 11.951 11.9583 12.315 11.6233C12.631 11.3313 12.763 11.0503 12.783 10.6283L12.799 10.3083L12.622 10.1023C12.368 9.80625 10.267 7.48825 6.318 3.14625L6.212 3.03125L6 3.19625V3.19525ZM7.714 19.5772C7.78377 19.4537 7.8046 19.3085 7.77238 19.1703C7.74015 19.0322 7.65722 18.9112 7.54 18.8313C7.312 18.6792 6.957 18.7513 6.957 18.9493C6.957 19.0093 6.99 19.0532 7.065 19.0922C7.192 19.1572 7.201 19.2312 7.102 19.3802C7.001 19.5322 7.009 19.6663 7.125 19.7572C7.311 19.9032 7.575 19.8223 7.715 19.5772H7.714ZM13.238 12.4012C12.911 12.5013 12.594 12.8483 12.495 13.2113C12.435 13.4323 12.469 13.8212 12.559 13.9412C12.704 14.1353 12.845 14.1863 13.225 14.1833C13.969 14.1783 14.615 13.8593 14.691 13.4602C14.753 13.1333 14.468 12.6803 14.077 12.4803C13.875 12.3783 13.446 12.3372 13.238 12.4012ZM14.108 13.0813C14.223 12.9183 14.172 12.7413 13.978 12.6233C13.606 12.3962 13.044 12.5833 13.044 12.9353C13.044 13.1093 13.337 13.3003 13.605 13.3003C13.785 13.3003 14.029 13.1933 14.108 13.0813Z" fill="white"/>
</g>
<defs>
<clipPath id="clip0_1_5204">
<rect width="32" height="32" fill="white" transform="translate(0 0.03125)"/>
</clipPath>
</defs>
</svg>
