<svg width="32" height="33" viewBox="0 0 32 33" fill="none" xmlns="http://www.w3.org/2000/svg">
<g clip-path="url(#clip0_1_5116)">
<path d="M16 32.0322C24.8366 32.0322 32 24.8688 32 16.0322C32 7.19567 24.8366 0.0322266 16 0.0322266C7.16344 0.0322266 0 7.19567 0 16.0322C0 24.8688 7.16344 32.0322 16 32.0322Z" fill="#201A2D"/>
<path d="M23.2562 10.0564L22.6562 10.6564C24.0879 12.2221 24.8818 14.2668 24.8818 16.3884C24.8818 18.51 24.0879 20.5547 22.6562 22.1204L23.2562 22.7204C24.8484 20.9934 25.7323 18.7304 25.7323 16.3814C25.7323 14.0324 24.8484 11.7694 23.2562 10.0424V10.0564ZM10.6382 10.1084C12.2038 8.6767 14.2486 7.88275 16.3702 7.88275C18.4917 7.88275 20.5365 8.6767 22.1022 10.1084L22.7022 9.5084C20.9751 7.9162 18.7122 7.03223 16.3632 7.03223C14.0142 7.03223 11.7512 7.9162 10.0242 9.5084L10.6382 10.1084ZM10.0762 22.1264C8.64617 20.5611 7.85327 18.5176 7.85327 16.3974C7.85327 14.2772 8.64617 12.2337 10.0762 10.6684L9.47617 10.0684C7.88397 11.7954 7 14.0584 7 16.4074C7 18.7564 7.88397 21.0194 9.47617 22.7464L10.0762 22.1264ZM22.0942 22.6804C20.5285 24.1121 18.4837 24.9061 16.3622 24.9061C14.2406 24.9061 12.1958 24.1121 10.6302 22.6804L10.0302 23.2804C11.7572 24.8726 14.0202 25.7566 16.3692 25.7566C18.7182 25.7566 20.9811 24.8726 22.7082 23.2804L22.0942 22.6804ZM20.1522 14.3944C20.0322 13.1424 18.9522 12.7224 17.5862 12.5944V10.8704H16.5302V12.5624H15.6862V10.8704H14.6382V12.6064H12.4962V13.7364C12.4962 13.7364 13.2762 13.7224 13.2642 13.7364C13.4048 13.7209 13.546 13.7607 13.6579 13.8472C13.7698 13.9338 13.8438 14.0604 13.8642 14.2004V18.9524C13.8612 19.0018 13.8483 19.0501 13.8263 19.0944C13.8043 19.1387 13.7737 19.1781 13.7362 19.2104C13.6994 19.2433 13.6563 19.2684 13.6096 19.2842C13.5628 19.3 13.5134 19.3062 13.4642 19.3024C13.4782 19.3144 12.6962 19.3024 12.6962 19.3024L12.4962 20.5644H14.6182V22.3284H15.6742V20.5904H16.5182V22.3204H17.5762V20.5764C19.3602 20.4684 20.6042 20.0284 20.7602 18.3584C20.8862 17.0144 20.2542 16.4144 19.2442 16.1724C19.8582 15.8704 20.2382 15.3104 20.1522 14.3944ZM18.6722 18.1504C18.6722 19.4624 16.4242 19.3124 15.7082 19.3124V16.9844C16.4242 16.9864 18.6722 16.7804 18.6722 18.1504ZM18.1822 14.8704C18.1822 16.0704 16.3062 15.9244 15.7102 15.9244V13.8084C16.3062 13.8084 18.1822 13.6204 18.1822 14.8704Z" fill="white"/>
<path d="M15.924 26.8842C9.89 26.8832 5 21.9912 5 15.9572C5 9.92423 9.892 5.03223 15.925 5.03223C21.959 5.03223 26.851 9.92223 26.852 15.9562C26.8523 17.3914 26.5698 18.8125 26.0207 20.1385C25.4716 21.4645 24.6667 22.6693 23.6518 23.6841C22.637 24.6989 21.4322 25.5038 20.1063 26.0529C18.7803 26.602 17.3592 26.8845 15.924 26.8842ZM15.924 5.88423C10.365 5.88823 5.862 10.3972 5.864 15.9562C5.866 21.5152 10.374 26.0202 15.932 26.0202C21.491 26.0202 25.998 21.5152 26 15.9562C26.0005 14.6331 25.7402 13.3228 25.234 12.1003C24.7278 10.8778 23.9855 9.76709 23.0497 8.83166C22.1139 7.89623 21.0029 7.15444 19.7802 6.64869C18.5575 6.14295 17.2472 5.88318 15.924 5.88423Z" fill="white"/>
</g>
<defs>
<clipPath id="clip0_1_5116">
<rect width="32" height="32" fill="white" transform="translate(0 0.0322266)"/>
</clipPath>
</defs>
</svg>
